<svg xmlns="http://www.w3.org/2000/svg" viewBox="0 0 900 20" width="900" height="20" role="img" aria-label="divider"><title>divider</title><style>
@keyframes tw{0%,100%{opacity:1}50%{opacity:.15}}
@keyframes blink{0%,49%{opacity:1}50%,100%{opacity:0}}
@keyframes bob{0%,100%{transform:translateY(0)}50%{transform:translateY(-4px)}}
@keyframes show{from{opacity:0}to{opacity:1}}
@keyframes run{from{transform:translateX(0)}to{transform:translateX(900px)}}</style><g shape-rendering="crispEdges"><rect x="0" y="9" width="6" height="2" fill="#2b3566"/><rect x="12" y="9" width="6" height="2" fill="#2b3566"/><rect x="24" y="9" width="6" height="2" fill="#2b3566"/><rect x="36" y="9" width="6" height="2" fill="#2b3566"/><rect x="48" y="9" width="6" height="2" fill="#2b3566"/><rect x="60" y="9" width="6" height="2" fill="#2b3566"/><rect x="72" y="9" width="6" height="2" fill="#2b3566"/><rect x="84" y="9" width="6" height="2" fill="#2b3566"/><rect x="96" y="9" width="6" height="2" fill="#2b3566"/><rect x="108" y="9" width="6" height="2" fill="#2b3566"/><rect x="120" y="9" width="6" height="2" fill="#2b3566"/><rect x="132" y="9" width="6" height="2" fill="#2b3566"/><rect x="144" y="9" width="6" height="2" fill="#2b3566"/><rect x="156" y="9" width="6" height="2" fill="#2b3566"/><rect x="168" y="9" width="6" height="2" fill="#2b3566"/><rect x="180" y="9" width="6" height="2" fill="#2b3566"/><rect x="192" y="9" width="6" height="2" fill="#2b3566"/><rect x="204" y="9" width="6" height="2" fill="#2b3566"/><rect x="216" y="9" width="6" height="2" fill="#2b3566"/><rect x="228" y="9" width="6" height="2" fill="#2b3566"/><rect x="240" y="9" width="6" height="2" fill="#2b3566"/><rect x="252" y="9" width="6" height="2" fill="#2b3566"/><rect x="264" y="9" width="6" height="2" fill="#2b3566"/><rect x="276" y="9" width="6" height="2" fill="#2b3566"/><rect x="288" y="9" width="6" height="2" fill="#2b3566"/><rect x="300" y="9" width="6" height="2" fill="#2b3566"/><rect x="312" y="9" width="6" height="2" fill="#2b3566"/><rect x="324" y="9" width="6" height="2" fill="#2b3566"/><rect x="336" y="9" width="6" height="2" fill="#2b3566"/><rect x="348" y="9" width="6" height="2" fill="#2b3566"/><rect x="360" y="9" width="6" height="2" fill="#2b3566"/><rect x="372" y="9" width="6" height="2" fill="#2b3566"/><rect x="384" y="9" width="6" height="2" fill="#2b3566"/><rect x="396" y="9" width="6" height="2" fill="#2b3566"/><rect x="408" y="9" width="6" height="2" fill="#2b3566"/><rect x="420" y="9" width="6" height="2" fill="#2b3566"/><rect x="432" y="9" width="6" height="2" fill="#2b3566"/><rect x="444" y="9" width="6" height="2" fill="#2b3566"/><rect x="456" y="9" width="6" height="2" fill="#2b3566"/><rect x="468" y="9" width="6" height="2" fill="#2b3566"/><rect x="480" y="9" width="6" height="2" fill="#2b3566"/><rect x="492" y="9" width="6" height="2" fill="#2b3566"/><rect x="504" y="9" width="6" height="2" fill="#2b3566"/><rect x="516" y="9" width="6" height="2" fill="#2b3566"/><rect x="528" y="9" width="6" height="2" fill="#2b3566"/><rect x="540" y="9" width="6" height="2" fill="#2b3566"/><rect x="552" y="9" width="6" height="2" fill="#2b3566"/><rect x="564" y="9" width="6" height="2" fill="#2b3566"/><rect x="576" y="9" width="6" height="2" fill="#2b3566"/><rect x="588" y="9" width="6" height="2" fill="#2b3566"/><rect x="600" y="9" width="6" height="2" fill="#2b3566"/><rect x="612" y="9" width="6" height="2" fill="#2b3566"/><rect x="624" y="9" width="6" height="2" fill="#2b3566"/><rect x="636" y="9" width="6" height="2" fill="#2b3566"/><rect x="648" y="9" width="6" height="2" fill="#2b3566"/><rect x="660" y="9" width="6" height="2" fill="#2b3566"/><rect x="672" y="9" width="6" height="2" fill="#2b3566"/><rect x="684" y="9" width="6" height="2" fill="#2b3566"/><rect x="696" y="9" width="6" height="2" fill="#2b3566"/><rect x="708" y="9" width="6" height="2" fill="#2b3566"/><rect x="720" y="9" width="6" height="2" fill="#2b3566"/><rect x="732" y="9" width="6" height="2" fill="#2b3566"/><rect x="744" y="9" width="6" height="2" fill="#2b3566"/><rect x="756" y="9" width="6" height="2" fill="#2b3566"/><rect x="768" y="9" width="6" height="2" fill="#2b3566"/><rect x="780" y="9" width="6" height="2" fill="#2b3566"/><rect x="792" y="9" width="6" height="2" fill="#2b3566"/><rect x="804" y="9" width="6" height="2" fill="#2b3566"/><rect x="816" y="9" width="6" height="2" fill="#2b3566"/><rect x="828" y="9" width="6" height="2" fill="#2b3566"/><rect x="840" y="9" width="6" height="2" fill="#2b3566"/><rect x="852" y="9" width="6" height="2" fill="#2b3566"/><rect x="864" y="9" width="6" height="2" fill="#2b3566"/><rect x="876" y="9" width="6" height="2" fill="#2b3566"/><rect x="888" y="9" width="6" height="2" fill="#2b3566"/><g style="animation:run 6s linear infinite"><g shape-rendering="crispEdges" ><rect x="-11" y="2" width="6" height="1" fill="#ffd23f"/><rect x="-13" y="3" width="2" height="1" fill="#ffd23f"/><rect x="-11" y="3" width="6" height="1" fill="#fff3a0"/><rect x="-5" y="3" width="2" height="1" fill="#ffd23f"/><rect x="-14" y="4" width="1" height="1" fill="#ffd23f"/><rect x="-13" y="4" width="10" height="1" fill="#fff3a0"/><rect x="-3" y="4" width="1" height="1" fill="#e0a921"/><rect x="-2" y="4" width="1" height="1" fill="#c98a1b"/><rect x="-15" y="5" width="1" height="1" fill="#ffd23f"/><rect x="-14" y="5" width="6" height="1" fill="#fff3a0"/><rect x="-8" y="5" width="1" height="1" fill="#8a5a0e"/><rect x="-7" y="5" width="4" height="1" fill="#fff3a0"/><rect x="-3" y="5" width="2" height="1" fill="#e0a921"/><rect x="-1" y="5" width="1" height="1" fill="#c98a1b"/><rect x="-15" y="6" width="1" height="1" fill="#ffd23f"/><rect x="-14" y="6" width="5" height="1" fill="#fff3a0"/><rect x="-9" y="6" width="4" height="1" fill="#8a5a0e"/><rect x="-5" y="6" width="2" height="1" fill="#fff3a0"/><rect x="-3" y="6" width="2" height="1" fill="#e0a921"/><rect x="-1" y="6" width="1" height="1" fill="#c98a1b"/><rect x="-16" y="7" width="1" height="1" fill="#ffd23f"/><rect x="-15" y="7" width="5" height="1" fill="#fff3a0"/><rect x="-10" y="7" width="2" height="1" fill="#8a5a0e"/><rect x="-8" y="7" width="1" height="1" fill="#fff3a0"/><rect x="-7" y="7" width="1" height="1" fill="#8a5a0e"/><rect x="-6" y="7" width="4" height="1" fill="#fff3a0"/><rect x="-2" y="7" width="1" height="1" fill="#e0a921"/><rect x="-1" y="7" width="1" height="1" fill="#c98a1b"/><rect x="-16" y="8" width="1" height="1" fill="#ffd23f"/><rect x="-15" y="8" width="5" height="1" fill="#fff3a0"/><rect x="-10" y="8" width="2" height="1" fill="#8a5a0e"/><rect x="-8" y="8" width="6" height="1" fill="#fff3a0"/><rect x="-2" y="8" width="1" height="1" fill="#e0a921"/><rect x="-1" y="8" width="1" height="1" fill="#c98a1b"/><rect x="-16" y="9" width="1" height="1" fill="#ffd23f"/><rect x="-15" y="9" width="6" height="1" fill="#fff3a0"/><rect x="-9" y="9" width="3" height="1" fill="#8a5a0e"/><rect x="-6" y="9" width="4" height="1" fill="#fff3a0"/><rect x="-2" y="9" width="1" height="1" fill="#e0a921"/><rect x="-1" y="9" width="1" height="1" fill="#c98a1b"/><rect x="-16" y="10" width="1" height="1" fill="#ffd23f"/><rect x="-15" y="10" width="8" height="1" fill="#fff3a0"/><rect x="-7" y="10" width="2" height="1" fill="#8a5a0e"/><rect x="-5" y="10" width="3" height="1" fill="#fff3a0"/><rect x="-2" y="10" width="1" height="1" fill="#e0a921"/><rect x="-1" y="10" width="1" height="1" fill="#c98a1b"/><rect x="-16" y="11" width="1" height="1" fill="#ffd23f"/><rect x="-15" y="11" width="9" height="1" fill="#fff3a0"/><rect x="-6" y="11" width="1" height="1" fill="#8a5a0e"/><rect x="-5" y="11" width="3" height="1" fill="#fff3a0"/><rect x="-2" y="11" width="1" height="1" fill="#e0a921"/><rect x="-1" y="11" width="1" height="1" fill="#c98a1b"/><rect x="-16" y="12" width="1" height="1" fill="#ffd23f"/><rect x="-15" y="12" width="5" height="1" fill="#fff3a0"/><rect x="-10" y="12" width="1" height="1" fill="#8a5a0e"/><rect x="-9" y="12" width="2" height="1" fill="#fff3a0"/><rect x="-7" y="12" width="2" height="1" fill="#8a5a0e"/><rect x="-5" y="12" width="3" height="1" fill="#fff3a0"/><rect x="-2" y="12" width="1" height="1" fill="#e0a921"/><rect x="-1" y="12" width="1" height="1" fill="#c98a1b"/><rect x="-15" y="13" width="1" height="1" fill="#ffd23f"/><rect x="-14" y="13" width="4" height="1" fill="#fff3a0"/><rect x="-10" y="13" width="4" height="1" fill="#8a5a0e"/><rect x="-6" y="13" width="3" height="1" fill="#fff3a0"/><rect x="-3" y="13" width="2" height="1" fill="#e0a921"/><rect x="-1" y="13" width="1" height="1" fill="#c98a1b"/><rect x="-15" y="14" width="1" height="1" fill="#ffd23f"/><rect x="-14" y="14" width="6" height="1" fill="#fff3a0"/><rect x="-8" y="14" width="1" height="1" fill="#8a5a0e"/><rect x="-7" y="14" width="3" height="1" fill="#fff3a0"/><rect x="-4" y="14" width="3" height="1" fill="#e0a921"/><rect x="-1" y="14" width="1" height="1" fill="#c98a1b"/><rect x="-14" y="15" width="1" height="1" fill="#ffd23f"/><rect x="-13" y="15" width="8" height="1" fill="#fff3a0"/><rect x="-5" y="15" width="2" height="1" fill="#e0a921"/><rect x="-3" y="15" width="2" height="1" fill="#c98a1b"/><rect x="-13" y="16" width="2" height="1" fill="#ffd23f"/><rect x="-11" y="16" width="6" height="1" fill="#e0a921"/><rect x="-5" y="16" width="2" height="1" fill="#c98a1b"/><rect x="-11" y="17" width="6" height="1" fill="#c98a1b"/></g></g><g style="animation:run 6s linear infinite;animation-delay:-3s"><g shape-rendering="crispEdges" ><rect x="-14" y="4" width="4" height="2" fill="#ff5d73"/><rect x="-8" y="4" width="4" height="2" fill="#ff5d73"/><rect x="-16" y="6" width="2" height="2" fill="#ff5d73"/><rect x="-14" y="6" width="2" height="2" fill="#ff8fa3"/><rect x="-12" y="6" width="10" height="2" fill="#ff5d73"/><rect x="-16" y="8" width="14" height="2" fill="#ff5d73"/><rect x="-14" y="10" width="10" height="2" fill="#ff5d73"/><rect x="-12" y="12" width="6" height="2" fill="#ff5d73"/><rect x="-10" y="14" width="2" height="2" fill="#ff5d73"/></g></g></g></svg>