<svg xmlns="http://www.w3.org/2000/svg" viewBox="0 0 900 44" width="900" height="44" role="img" aria-label="TECH STACK"><title>TECH STACK</title><style>
@keyframes tw{0%,100%{opacity:1}50%{opacity:.15}}
@keyframes blink{0%,49%{opacity:1}50%,100%{opacity:0}}
@keyframes bob{0%,100%{transform:translateY(0)}50%{transform:translateY(-4px)}}
@keyframes show{from{opacity:0}to{opacity:1}}

@keyframes slide{from{width:0}to{width:100%}}
@keyframes runner{0%{transform:translateX(0)}100%{transform:translateX(860px)}}
@keyframes lit{0%,100%{opacity:.35}50%{opacity:1}}
</style><rect width="900" height="44" fill="#0b0f1f"/><rect x="0" y="6" width="6" height="32" fill="#5ec8ff" shape-rendering="crispEdges"/><g shape-rendering="crispEdges" ><rect x="18" y="10" width="24" height="3" fill="#f4e8c8"/><rect x="18" y="13" width="3" height="3" fill="#f4e8c8"/><rect x="21" y="13" width="18" height="3" fill="#ff5d73"/><rect x="39" y="13" width="3" height="3" fill="#f4e8c8"/><rect x="18" y="16" width="24" height="3" fill="#f4e8c8"/><rect x="18" y="19" width="3" height="3" fill="#f4e8c8"/><rect x="21" y="19" width="18" height="3" fill="#5ec8ff"/><rect x="39" y="19" width="3" height="3" fill="#f4e8c8"/><rect x="18" y="22" width="24" height="3" fill="#f4e8c8"/><rect x="18" y="25" width="3" height="3" fill="#f4e8c8"/><rect x="21" y="25" width="18" height="3" fill="#ffd23f"/><rect x="39" y="25" width="3" height="3" fill="#f4e8c8"/><rect x="18" y="28" width="24" height="3" fill="#f4e8c8"/></g><path d="M64.9 27.4V17.6H61.6V16H71.4V17.6H68.1V27.4Z M73 27.4V16H84.4V17.6H76.2V20.9H82.8V22.5H76.2V25.8H84.4V27.4Z M89.2 27.4V25.8H87.6V24.1H86V19.2H87.6V17.6H89.2V16H95.8V17.6H97.4V19.2H94.1V17.6H90.9V19.2H89.2V24.1H90.9V25.8H94.1V24.1H97.4V25.8H95.8V27.4Z M99 27.4V16H102.2V20.9H107.1V16H110.4V27.4H107.1V22.5H102.2V27.4Z M126.6 27.4V25.8H125V24.1H128.2V25.8H133.1V22.5H126.6V20.9H125V17.6H126.6V16H134.8V17.6H136.4V19.2H133.1V17.6H128.2V20.9H134.8V22.5H136.4V25.8H134.8V27.4Z M142.9 27.4V17.6H139.6V16H149.4V17.6H146.1V27.4Z M151 27.4V19.2H152.6V17.6H154.2V16H159.1V17.6H160.8V19.2H162.4V27.4H159.1V24.1H154.2V27.4ZM154.2 22.5H159.1V19.2H157.5V17.6H155.9V19.2H154.2Z M167.2 27.4V25.8H165.6V24.1H164V19.2H165.6V17.6H167.2V16H173.8V17.6H175.4V19.2H172.1V17.6H168.9V19.2H167.2V24.1H168.9V25.8H172.1V24.1H175.4V25.8H173.8V27.4Z M177 27.4V16H180.2V20.9H181.9V19.2H183.5V17.6H185.1V16H188.4V17.6H186.8V19.2H185.1V20.9H183.5V22.5H185.1V24.1H186.8V25.8H188.4V27.4H183.5V25.8H181.9V24.1H180.2V27.4Z" fill="#f4e8c8" /><g shape-rendering="crispEdges"><rect x="210" y="21" width="4" height="2" fill="#2b3566"/><rect x="220" y="21" width="4" height="2" fill="#2b3566"/><rect x="230" y="21" width="4" height="2" fill="#2b3566"/><rect x="240" y="21" width="4" height="2" fill="#2b3566"/><rect x="250" y="21" width="4" height="2" fill="#2b3566"/><rect x="260" y="21" width="4" height="2" fill="#2b3566"/><rect x="270" y="21" width="4" height="2" fill="#2b3566"/><rect x="280" y="21" width="4" height="2" fill="#2b3566"/><rect x="290" y="21" width="4" height="2" fill="#2b3566"/><rect x="300" y="21" width="4" height="2" fill="#2b3566"/><rect x="310" y="21" width="4" height="2" fill="#2b3566"/><rect x="320" y="21" width="4" height="2" fill="#2b3566"/><rect x="330" y="21" width="4" height="2" fill="#2b3566"/><rect x="340" y="21" width="4" height="2" fill="#2b3566"/><rect x="350" y="21" width="4" height="2" fill="#2b3566"/><rect x="360" y="21" width="4" height="2" fill="#2b3566"/><rect x="370" y="21" width="4" height="2" fill="#2b3566"/><rect x="380" y="21" width="4" height="2" fill="#2b3566"/><rect x="390" y="21" width="4" height="2" fill="#2b3566"/><rect x="400" y="21" width="4" height="2" fill="#2b3566"/><rect x="410" y="21" width="4" height="2" fill="#2b3566"/><rect x="420" y="21" width="4" height="2" fill="#2b3566"/><rect x="430" y="21" width="4" height="2" fill="#2b3566"/><rect x="440" y="21" width="4" height="2" fill="#2b3566"/><rect x="450" y="21" width="4" height="2" fill="#2b3566"/><rect x="460" y="21" width="4" height="2" fill="#2b3566"/><rect x="470" y="21" width="4" height="2" fill="#2b3566"/><rect x="480" y="21" width="4" height="2" fill="#2b3566"/><rect x="490" y="21" width="4" height="2" fill="#2b3566"/><rect x="500" y="21" width="4" height="2" fill="#2b3566"/><rect x="510" y="21" width="4" height="2" fill="#2b3566"/><rect x="520" y="21" width="4" height="2" fill="#2b3566"/><rect x="530" y="21" width="4" height="2" fill="#2b3566"/><rect x="540" y="21" width="4" height="2" fill="#2b3566"/><rect x="550" y="21" width="4" height="2" fill="#2b3566"/><rect x="560" y="21" width="4" height="2" fill="#2b3566"/><rect x="570" y="21" width="4" height="2" fill="#2b3566"/><rect x="580" y="21" width="4" height="2" fill="#2b3566"/><rect x="590" y="21" width="4" height="2" fill="#2b3566"/><rect x="600" y="21" width="4" height="2" fill="#2b3566"/><rect x="610" y="21" width="4" height="2" fill="#2b3566"/><rect x="620" y="21" width="4" height="2" fill="#2b3566"/><rect x="630" y="21" width="4" height="2" fill="#2b3566"/><rect x="640" y="21" width="4" height="2" fill="#2b3566"/><rect x="650" y="21" width="4" height="2" fill="#2b3566"/><rect x="660" y="21" width="4" height="2" fill="#2b3566"/><rect x="670" y="21" width="4" height="2" fill="#2b3566"/><rect x="680" y="21" width="4" height="2" fill="#2b3566"/><rect x="690" y="21" width="4" height="2" fill="#2b3566"/><rect x="700" y="21" width="4" height="2" fill="#2b3566"/><rect x="710" y="21" width="4" height="2" fill="#2b3566"/><rect x="720" y="21" width="4" height="2" fill="#2b3566"/><rect x="730" y="21" width="4" height="2" fill="#2b3566"/><rect x="740" y="21" width="4" height="2" fill="#2b3566"/><rect x="750" y="21" width="4" height="2" fill="#2b3566"/><rect x="760" y="21" width="4" height="2" fill="#2b3566"/><rect x="770" y="21" width="4" height="2" fill="#2b3566"/><rect x="780" y="21" width="4" height="2" fill="#2b3566"/><rect x="790" y="21" width="4" height="2" fill="#2b3566"/><rect x="800" y="21" width="4" height="2" fill="#2b3566"/><rect x="810" y="21" width="4" height="2" fill="#2b3566"/><rect x="820" y="21" width="4" height="2" fill="#2b3566"/><rect x="830" y="21" width="4" height="2" fill="#2b3566"/><rect x="840" y="21" width="4" height="2" fill="#2b3566"/><rect x="850" y="21" width="4" height="2" fill="#2b3566"/><rect x="860" y="21" width="4" height="2" fill="#2b3566"/><rect x="870" y="21" width="4" height="2" fill="#2b3566"/><rect x="880" y="21" width="4" height="2" fill="#2b3566"/><rect x="890" y="21" width="4" height="2" fill="#2b3566"/></g><g shape-rendering="crispEdges"><g style="animation:runner 7s linear infinite"><rect x="210.0" y="19" width="6" height="6" fill="#5ec8ff"/><rect x="202.0" y="20" width="6" height="4" fill="#5ec8ff" opacity=".5"/><rect x="195.0" y="21" width="5" height="2" fill="#5ec8ff" opacity=".25"/></g></g><rect x="60" y="34" width="130" height="3" fill="#5ec8ff" shape-rendering="crispEdges"/></svg>